<?xml version="1.0" standalone="no"?>
<!DOCTYPE svg PUBLIC "-//W3C//DTD SVG 20010904//EN"
 "http://www.w3.org/TR/2001/REC-SVG-20010904/DTD/svg10.dtd">
<svg version="1.0" xmlns="http://www.w3.org/2000/svg"
 width="16.000000pt" height="16.000000pt" viewBox="0 0 16.000000 16.000000"
 preserveAspectRatio="xMidYMid meet">
<metadata>
Created by potrace 1.11, written by Peter Selinger 2001-2013
</metadata>
<g transform="translate(0.000000,16.000000) scale(0.006154,-0.006154)"
fill="#000000" stroke="none">
<path d="M1747 2084 c-1 -1 -31 -4 -67 -8 -56 -5 -110 -16 -138 -28 -4 -2 -6
-6 -5 -9 1 -4 -6 -5 -16 -2 -23 6 -104 -30 -94 -42 5 -4 3 -5 -3 -2 -13 8 -37
-4 -101 -46 l-41 -28 -39 24 c-87 55 -204 102 -229 93 -8 -3 -13 -2 -10 3 3 5
-20 12 -52 17 -94 13 -207 9 -299 -10 -42 -9 -148 -49 -158 -60 -6 -6 -17 -12
-25 -14 -39 -9 -184 -128 -235 -194 -34 -43 -55 -78 -48 -78 4 0 3 -4 -3 -8
-34 -22 -115 -257 -98 -284 3 -4 1 -8 -4 -8 -14 0 -6 -189 12 -264 20 -85 75
-202 128 -274 66 -89 167 -179 183 -164 5 4 5 2 2 -4 -11 -19 160 -101 248
-120 101 -22 247 -22 345 0 73 17 230 82 230 96 0 9 39 23 57 21 7 -1 36 -17
65 -37 59 -39 188 -91 245 -100 21 -3 49 -7 63 -10 94 -17 287 7 380 47 85 37
174 92 237 146 38 32 143 163 143 177 0 5 6 17 13 25 20 23 64 139 81 213 21
90 15 284 -11 363 -4 11 -7 22 -8 25 -3 21 -51 130 -57 130 -5 0 -8 6 -8 14 0
16 -92 141 -130 176 -59 54 -87 76 -145 110 -74 45 -143 73 -157 64 -7 -4 -8
-2 -4 4 5 8 -1 12 -14 12 -12 0 -29 4 -38 9 -19 9 -188 31 -195 25z"/>
</g>
</svg>
